# xmcd
#
# Track frame offsets: 
#        150
#        19045
#        31785
#        45812
#        62436
#        74366
#        104603
#        123103
#        128683
#        150673
#        157995
#        182389
#        199564
#        222652
#        234710
#
# Disc length: 3409 seconds
#
# Revision: 2
# Processed by: cddbd v1.5.2PL0 Copyright (c) Steve Scherf et al.
# Submitted via: ExactAudioCopy v0.90b4
#
DISCID=ba0d4f0f
DTITLE=The Barrelhouse Brothers - Pick It Up, Pass It On
DYEAR=2002
DGENRE=King and Earl
TTITLE0=Too Many Hot Dogs
TTITLE1=The Fly
TTITLE2=Love Her With A Feeling
TTITLE3=Country Road
TTITLE4=I Want Some Of Your Pie
TTITLE5=Can't Get You Off Of My Mind
TTITLE6=Wednesday Night Special
TTITLE7=Blues In 3/4
TTITLE8=It's No Secret
TTITLE9=De Barras Boogie
TTITLE10=Twenty One Jezebels
TTITLE11=Just A Dream
TTITLE12=Black Dog Blues
TTITLE13=Love Crazy
TTITLE14=Crazy 'bout You Baby
EXTD=
EXTT0=
EXTT1=
EXTT2=
EXTT3=
EXTT4=
EXTT5=
EXTT6=
EXTT7=
EXTT8=
EXTT9=
EXTT10=
EXTT11=
EXTT12=
EXTT13=
EXTT14=
PLAYORDER=
